<svg width="1024" height="1024" viewBox="0 0 1024 1024" xmlns="http://www.w3.org/2000/svg">
  <defs>
    <linearGradient id="gradient1" x1="0%" y1="0%" x2="100%" y2="100%">
      <stop offset="0%" style="stop-color:#60a5fa;stop-opacity:1" />
      <stop offset="100%" style="stop-color:#3b82f6;stop-opacity:1" />
    </linearGradient>
    <linearGradient id="gradient2" x1="100%" y1="0%" x2="0%" y2="100%">
      <stop offset="0%" style="stop-color:#8b5cf6;stop-opacity:1" />
      <stop offset="100%" style="stop-color:#6366f1;stop-opacity:1" />
    </linearGradient>
  </defs>
  
  <circle cx="512" cy="512" r="480" fill="#1a1a1a"/>
  
  <path d="M 300 350 Q 250 450 300 550 L 400 500 Q 350 450 400 400 Z" 
        fill="url(#gradient1)" opacity="0.9"/>
  
  <path d="M 724 350 Q 774 450 724 550 L 624 500 Q 674 450 624 400 Z" 
        fill="url(#gradient2)" opacity="0.9"/>
  
  <circle cx="512" cy="450" r="80" fill="url(#gradient1)" opacity="0.8"/>
  <circle cx="512" cy="450" r="50" fill="#1a1a1a"/>
  
  <path d="M 420 380 L 480 380 L 460 360 M 480 380 L 460 400" 
        stroke="#60a5fa" stroke-width="12" stroke-linecap="round" fill="none"/>
  <path d="M 604 520 L 544 520 L 564 540 M 544 520 L 564 500" 
        stroke="#8b5cf6" stroke-width="12" stroke-linecap="round" fill="none"/>
  
  <circle cx="380" cy="300" r="20" fill="#60a5fa" opacity="0.6"/>
  <circle cx="644" cy="300" r="20" fill="#8b5cf6" opacity="0.6"/>
  <circle cx="380" cy="600" r="20" fill="#8b5cf6" opacity="0.6"/>
  <circle cx="644" cy="600" r="20" fill="#60a5fa" opacity="0.6"/>
  
  <text x="512" y="720" font-family="Arial, sans-serif" font-size="120" font-weight="bold" 
        fill="#ffffff" text-anchor="middle">FS</text>
  <text x="512" y="800" font-family="Arial, sans-serif" font-size="48" 
        fill="#a0a0a0" text-anchor="middle">FEE SWITCH</text>
</svg>
